nColumns=19
nRows=108
DataType=double
version=3
OpenSimVersion=4.1
endheader
time	ground_force_1_vx	ground_force_1_vy	ground_force_1_vz	ground_force_1_px	ground_force_1_py	ground_force_1_pz	ground_force_1_mx	ground_force_1_my	ground_force_1_mz	ground_force_2_vx	ground_force_2_vy	ground_force_2_vz	ground_force_2_px	ground_force_2_py	ground_force_2_pz	ground_force_2_mx	ground_force_2_my	ground_force_2_mz
0.016667	0	0	0	-0.000605177	0	-0.00138605	0	0	0	-170.136	1491.58	-236.804	1.04242	0	-0.339659	-0	20.0726	-0
0.025	0	0	0	-0.000605177	0	-0.00138605	0	0	0	-142.836	1650.48	-152.411	1.01594	0	-0.321595	0	-36.1068	0
0.033333	0	0	0	-0.000605179	0	-0.00138605	0	0	0	-101.169	1765.46	-88.1453	0.988891	0	-0.313043	0	-55.3647	0
0.041667	0	0	0	-0.000605181	0	-0.00138605	0	0	0	-52.5274	1807.26	-57.7663	0.962228	0	-0.312512	0	-38.3153	0
0.05	0	0	0	-0.000605184	0	-0.00138606	0	0	0	-6.10057	1792.15	-46.6344	0.936541	0	-0.314583	0	-10.4368	0
0.058333	0	0	0	-0.000605187	0	-0.00138606	0	0	0	33.0958	1745.77	-35.8158	0.911817	0	-0.31554	-0	3.1742	-0
0.066667	0	0	0	-0.000605192	0	-0.00138606	0	0	0	67.8603	1673.26	-23.0822	0.887788	0	-0.315346	0	-1.04638	0
0.075	0	0	0	-0.000605198	0	-0.00138607	0	0	0	101.924	1565.88	-18.6974	0.863691	0	-0.315838	0	-9.20284	0
0.083333	0	0	0	-0.000605204	0	-0.00138608	0	0	0	134.456	1422.41	-27.0502	0.838465	0	-0.317495	0	-9.75304	0
0.091667	0	0	0	-0.000605211	0	-0.00138608	0	0	0	161.781	1250.62	-40.1627	0.811778	0	-0.318563	0	-4.00529	0
0.1	0	0	0	-0.000605219	0	-0.00138609	0	0	0	183.603	1055.44	-48.6842	0.782804	0	-0.317438	-0	1.21314	-0
0.108333	0	0	0	-0.000605228	0	-0.0013861	0	0	0	202.087	838.451	-51.9713	0.749065	0	-0.315077	-0	4.00774	-0
0.116667	0	0	0	-0.000605237	0	-0.00138611	0	0	0	207.679	614.045	-53.932	0.711035	0	-0.31404	-0	6.71708	-0
0.125	0	0	0	-0.000605248	0	-0.00138612	0	0	0	185.362	410.827	-53.6123	0.67594	0	-0.316076	-0	8.68271	-0
0.133333	0	0	0	-0.000605259	0	-0.00138613	0	0	0	138.888	252.73	-45.6464	0.656182	0	-0.318955	-0	5.64935	-0
0.141667	0	0	0	-0.000605271	0	-0.00138615	0	0	0	87.2282	147.57	-29.3929	0.668572	0	-0.312101	0	-3.04085	0
0.15	0	0	0	-0.000605284	0	-0.00138616	0	0	0	46.3375	83.6598	-12.5663	0.706037	0	-0.285189	0	-10.9971	0
0.158333	0	0	0	-0.000605298	0	-0.00138617	0	0	0	20.833	42.1976	-3.58785	0.713186	0	-0.247024	0	-11.3629	0
0.166667	0	0	0	-0.000605312	0	-0.00138619	0	0	0	7.687	15.2328	-2.71141	0.669866	0	-0.204036	0	-5.07698	0
0.175	0	0	0	-0.000605328	0	-0.0013862	0	0	0	0	0	0	-0.000605334	0	-0.00138622	0	0	0
0.183333	0	0	0	-0.000605344	0	-0.00138622	0	0	0	0	0	0	-0.000605351	0	-0.00138623	0	0	0
0.191667	1.97303	11.1669	3.23052	-0.000605361	0	-0.00138624	0	0	0	0	0	0	-0.000605369	0	-0.00138625	0	0	0
0.2	1.61725	11.8636	3.79229	-0.000605379	0	-0.00138625	0	0	0	0	0	0	-0.000605388	0	-0.00138627	0	0	0
0.208333	0	0	0	-0.000605397	0	-0.00138627	0	0	0	0	0	0	-0.000605407	0	-0.00138629	0	0	0
0.216667	0	0	0	-0.000605417	0	-0.00138629	0	0	0	0	0	0	-0.000605427	0	-0.00138631	0	0	0
0.225	0	0	0	-0.000605437	0	-0.00138631	0	0	0	0	0	0	-0.000605448	0	-0.00138634	0	0	0
0.233333	0	0	0	-0.000605458	0	-0.00138633	0	0	0	0	0	0	-0.00060547	0	-0.00138636	0	0	0
0.241667	0	0	0	-0.00060548	0	-0.00138636	0	0	0	0	0	0	-0.000605493	0	-0.00138638	0	0	0
0.25	0	0	0	-0.000605502	0	-0.00138638	0	0	0	0	0	0	-0.000605517	0	-0.00138641	0	0	0
0.258333	-1.76424	19.0986	-5.1741	1.12127	0	-0.226289	0	-1.97365	0	0	0	0	-0.000605541	0	-0.00138644	0	0	0
0.266667	-11.0533	54.0484	-6.18321	1.13221	0	-0.290557	-0	4.90715	-0	0	0	0	-0.000605566	0	-0.00138646	0	0	0
0.275	-24.7894	149.07	-5.17648	1.15702	0	-0.318561	-0	14.341	-0	0	0	0	-0.000605592	0	-0.00138649	0	0	0
0.283333	-38.8766	350.461	0.196048	1.1689	0	-0.329739	-0	20.1868	-0	0	0	0	-0.000605619	0	-0.00138652	0	0	0
0.291667	-53.2718	665.673	15.9766	1.16665	0	-0.33301	-0	13.6547	-0	0	0	0	-0.000605647	0	-0.00138655	0	0	0
0.3	-81.3896	1002.88	44.1576	1.15673	0	-0.332903	0	-6.22227	0	0	0	0	-0.000605675	0	-0.00138658	0	0	0
0.308333	-136.556	1225.87	73.7309	1.14431	0	-0.33192	0	-26.1605	0	0	0	0	-0.000605705	0	-0.00138661	0	0	0
0.316667	-205.026	1308.26	85.8499	1.1299	0	-0.332126	0	-28.3501	0	0	0	0	-0.000605735	0	-0.00138664	0	0	0
0.325	-251.648	1350.76	73.5776	1.10978	0	-0.334384	0	-9.47704	0	0	0	0	-0.000605766	0	-0.00138667	0	0	0
0.333333	-252.848	1442.85	52.2596	1.08238	0	-0.336206	-0	13.537	-0	0	0	0	-0.000605797	0	-0.00138671	0	0	0
0.341667	-213.121	1588.11	42.9594	1.05182	0	-0.334641	-0	20.9432	-0	0	0	0	-0.00060583	0	-0.00138674	0	0	0
0.35	-157.415	1732.73	48.3157	1.02266	0	-0.331178	-0	11.2667	-0	0	0	0	-0.000605863	0	-0.00138678	0	0	0
0.358333	-102.046	1823.08	52.7659	0.995334	0	-0.329038	-0	0.380857	-0	0	0	0	-0.000605897	0	-0.00138681	0	0	0
0.366667	-49.6536	1843.26	45.4776	0.968538	0	-0.329094	-0	0.829091	-0	0	0	0	-0.000605932	0	-0.00138685	0	0	0
0.375	-4.01054	1810.36	33.7462	0.942169	0	-0.32954	-0	8.5478	-0	0	0	0	-0.000605967	0	-0.00138689	0	0	0
0.383333	31.3359	1747.08	30.554	0.916834	0	-0.328172	-0	12.1154	-0	0	0	0	-0.000606003	0	-0.00138692	0	0	0
0.391667	60.7534	1658.06	36.6782	0.892871	0	-0.325329	-0	8.86688	-0	0	0	0	-0.00060604	0	-0.00138696	0	0	0
0.4	90.6556	1537.71	42.4843	0.86945	0	-0.32365	-0	5.66533	-0	0	0	0	-0.000606078	0	-0.001387	0	0	0
0.408333	120.525	1387.28	43.8689	0.845682	0	-0.324537	-0	6.28783	-0	0	0	0	-0.000606116	0	-0.00138704	0	0	0
0.416667	145.676	1216.79	47.2425	0.821653	0	-0.326211	-0	5.67317	-0	0	0	0	-0.000606155	0	-0.00138709	0	0	0
0.425	164.018	1034	57.2024	0.796692	0	-0.326203	0	-1.1495	0	0	0	0	-0.000606195	0	-0.00138713	0	0	0
0.433333	178.217	836.055	66.7804	0.766981	0	-0.324761	0	-9.91927	0	0	0	0	-0.000606236	0	-0.00138717	0	0	0
0.441667	185.614	626.324	64.9421	0.728184	0	-0.324528	0	-11.7219	0	0	0	0	-0.000606277	0	-0.00138721	0	0	0
0.45	173.961	429.897	50.461	0.68454	0	-0.327222	0	-4.71119	0	0	0	0	-0.000606319	0	-0.00138726	0	0	0
0.458333	139.4	273.924	33.1897	0.653435	0	-0.329956	-0	3.49163	-0	0	0	0	-0.000606362	0	-0.0013873	0	0	0
0.466667	94.7699	167.594	21.9806	0.658707	0	-0.321856	-0	5.55364	-0	0	0	0	-0.000606405	0	-0.00138735	0	0	0
0.475	55.6472	100.474	16.029	0.700838	0	-0.294634	-0	2.68051	-0	0	0	0	-0.000606449	0	-0.0013874	0	0	0
0.483333	29.8681	55.9226	9.77314	0.73276	0	-0.259653	-0	1.00805	-0	0	0	0	-0.000606494	0	-0.00138744	0	0	0
0.491667	13.9424	25.8523	2.3704	0.717475	0	-0.230001	-0	2.54802	-0	0	0	0	-0.00060654	0	-0.00138749	0	0	0
0.5	3.75246	10.3555	-1.64993	-0.000606525	0	-0.00138742	0	0	0	0	0	0	-0.000606586	0	-0.00138754	0	0	0
0.508333	0	0	0	-0.00060657	0	-0.00138747	0	0	0	0	0	0	-0.000606632	0	-0.00138759	0	0	0
0.516667	0	0	0	-0.000606615	0	-0.00138751	0	0	0	-0.935307	10.0948	3.4382	-0.00060668	0	-0.00138764	0	0	0
0.525	0	0	0	-0.000606661	0	-0.00138756	0	0	0	0	0	0	-0.000606728	0	-0.00138769	0	0	0
0.533333	0	0	0	-0.000606708	0	-0.00138761	0	0	0	0	0	0	-0.000606776	0	-0.00138774	0	0	0
0.541667	0	0	0	-0.000606755	0	-0.00138765	0	0	0	0	0	0	-0.000606826	0	-0.0013878	0	0	0
0.55	0	0	0	-0.000606803	0	-0.0013877	0	0	0	0	0	0	-0.000606876	0	-0.00138785	0	0	0
0.558333	0	0	0	-0.000606851	0	-0.00138775	0	0	0	-1.66333	11.8244	3.50129	-0.000606926	0	-0.0013879	0	0	0
0.566667	0	0	0	-0.0006069	0	-0.0013878	0	0	0	0	0	0	-0.000606977	0	-0.00138796	0	0	0
0.575	0	0	0	-0.000606949	0	-0.00138785	0	0	0	0	0	0	-0.000607029	0	-0.00138801	0	0	0
0.583333	0	0	0	-0.000606999	0	-0.0013879	0	0	0	-1.26615	10.254	-3.79384	-0.000607081	0	-0.00138807	0	0	0
0.591667	0	0	0	-0.00060705	0	-0.00138795	0	0	0	-4.67188	32.1478	-5.61569	1.19024	0	-0.255535	0	-0.067966	0
0.6	0	0	0	-0.000607101	0	-0.00138801	0	0	0	-14.5605	93.6269	-8.80022	1.17376	0	-0.298294	0	-0.458176	0
0.608333	0	0	0	-0.000607153	0	-0.00138806	0	0	0	-33.5897	235.749	-14.3708	1.17585	0	-0.315155	0	-2.56538	0
0.616667	0	0	0	-0.000607205	0	-0.00138811	0	0	0	-62.8773	495.925	-19.9671	1.17643	0	-0.317271	0	-7.82702	0
0.625	0	0	0	-0.000607258	0	-0.00138816	0	0	0	-104.623	837.922	-24.0411	1.17282	0	-0.313541	0	-13.8945	0
0.633333	0	0	0	-0.000607311	0	-0.00138822	0	0	0	-156.74	1125.34	-30.8509	1.16532	0	-0.309048	0	-13.098	0
0.641667	0	0	0	-0.000607364	0	-0.00138827	0	0	0	-207.479	1253.56	-46.7656	1.15413	0	-0.306741	0	-0.171267	0
0.65	0	0	0	-0.000607419	0	-0.00138833	0	0	0	-243.938	1273.42	-68.3247	1.13802	0	-0.308161	-0	17.634	-0
0.658333	0	0	0	-0.000607473	0	-0.00138838	0	0	0	-263.279	1307.33	-78.8248	1.11539	0	-0.311128	-0	23.3016	-0
0.666667	0	0	0	-0.000607528	0	-0.00138844	0	0	0	-263.271	1411.96	-65.242	1.08733	0	-0.31139	-0	7.8872	-0
0.675	0	0	0	-0.000607584	0	-0.0013885	0	0	0	-236.316	1557.8	-36.9253	1.05678	0	-0.309361	0	-16.5183	0
0.683333	0	0	0	-0.00060764	0	-0.00138855	0	0	0	-184.864	1686.24	-17.9235	1.02691	0	-0.308869	0	-27.5889	0
0.691667	0	0	0	-0.000607697	0	-0.00138861	0	0	0	-124.798	1763.24	-19.4949	0.999119	0	-0.311244	0	-17.1078	0
0.7	0	0	0	-0.000607754	0	-0.00138867	0	0	0	-71.7356	1791.73	-28.9494	0.973045	0	-0.314124	-0	0.727757	-0
0.708333	0	0	0	-0.000607811	0	-0.00138873	0	0	0	-31.0156	1789.87	-28.9314	0.947859	0	-0.314887	-0	7.16486	-0
0.716667	0	0	0	-0.000607869	0	-0.00138879	0	0	0	3.90453	1762.57	-19.4315	0.922748	0	-0.314118	0	-0.301146	0
0.725	0	0	0	-0.000607927	0	-0.00138884	0	0	0	40.3889	1698.9	-13.9999	0.897543	0	-0.314382	0	-9.232	0
0.733333	0	0	0	-0.000607986	0	-0.0013889	0	0	0	76.8848	1595.68	-19.5605	0.872341	0	-0.316278	0	-10.2291	0
0.741667	0	0	0	-0.000608045	0	-0.00138896	0	0	0	108.45	1464.56	-29.1958	0.847486	0	-0.317811	0	-6.42316	0
0.75	0	0	0	-0.000608104	0	-0.00138902	0	0	0	133.895	1315.48	-34.6098	0.823506	0	-0.316961	0	-4.79885	0
0.758333	0	0	0	-0.000608164	0	-0.00138909	0	0	0	154.614	1143.88	-37.2661	0.800027	0	-0.314283	0	-4.96899	0
0.766667	0	0	0	-0.000608224	0	-0.00138915	0	0	0	170.268	939.625	-43.0603	0.773897	0	-0.312437	0	-1.29752	0
0.775	0	0	0	-0.000608285	0	-0.00138921	0	0	0	178.237	711.758	-50.8958	0.739546	0	-0.313091	-0	6.70597	-0
0.783333	0	0	0	-0.000608346	0	-0.00138927	0	0	0	170.342	495.358	-52.3796	0.697456	0	-0.314565	-0	11.7054	-0
0.791667	0	0	0	-0.000608407	0	-0.00138933	0	0	0	141.504	321.85	-42.2587	0.659519	0	-0.31283	-0	7.39334	-0
0.8	0	0	0	-0.000608468	0	-0.00138939	0	0	0	99.679	196.381	-25.2731	0.642586	0	-0.30536	0	-3.26389	0
0.808333	0	0	0	-0.00060853	0	-0.00138946	0	0	0	58.7857	109.602	-11.2282	0.664999	0	-0.29316	0	-11.0726	0
0.816667	0	0	0	-0.000608592	0	-0.00138952	0	0	0	29.3266	52.4556	-5.04406	0.730877	0	-0.280062	0	-10.6664	0
0.825	0	0	0	-0.000608655	0	-0.00138958	0	0	0	13.1066	21.2475	-3.65952	0.828377	0	-0.257443	0	-5.17235	0
0.833333	0	0	0	-0.000608717	0	-0.00138965	0	0	0	5.5055	11.4421	-1.93329	-0.000608876	0	-0.00138997	0	0	0
0.841667	0	0	0	-0.00060878	0	-0.00138971	0	0	0	1.31202	11.5395	1.07151	-0.000608942	0	-0.00139004	0	0	0
0.85	0	0	0	-0.000608844	0	-0.00138978	0	0	0	-2.19199	10.2647	2.71854	-0.000609008	0	-0.00139011	0	0	0
0.858333	0	0	0	-0.000608907	0	-0.00138984	0	0	0	0	0	0	-0.000609075	0	-0.00139018	0	0	0
0.866667	0	0	0	-0.000608971	0	-0.00138991	0	0	0	0	0	0	-0.000609141	0	-0.00139025	0	0	0
0.875	0	0	0	-0.000609035	0	-0.00138997	0	0	0	0	0	0	-0.000609208	0	-0.00139032	0	0	0
0.883333	0	0	0	-0.000609099	0	-0.00139004	0	0	0	0	0	0	-0.000609275	0	-0.00139039	0	0	0
0.891667	0.17737	10.1042	2.40998	-0.000609164	0	-0.0013901	0	0	0	0	0	0	-0.000609343	0	-0.00139046	0	0	0
0.9	0	0	0	-0.000609229	0	-0.00139017	0	0	0	0	0	0	-0.00060941	0	-0.00139053	0	0	0
0.908333	0	0	0	-0.000609294	0	-0.00139023	0	0	0	0	0	0	-0.000609478	0	-0.0013906	0	0	0
